<svg viewBox="0 0 79 56" fill="none" xmlns="http://www.w3.org/2000/svg"><path d="M38.66 19.88l-6.697 4.927h-7.147v-6.939h5.309c.735 0 1.348-.574 1.388-1.313V5.757L38.66.625V19.88zm9.963-2.012c-.776 0-1.388-.656-1.429-1.436V5.756L40.007.625v19.296l6.738 4.927h7.146v-6.98h-5.268z" fill="#ED1C24"/><path d="M68.756 31.662v2.915h3.39v10.305h2.98V34.577h3.39v-2.915h-9.76zm-6.207 13.18h2.981v-13.18h-2.98v13.18zm-7.105-13.18l-3.553 5.871-3.552-5.87h-2.981V44.84h2.98v-7.677l3.39 5.584h.327l3.39-5.584v7.677h2.98V31.662h-2.98zm-17.273 0l-3.553 5.871-3.552-5.87h-2.981V44.84h2.98v-7.677l3.39 5.584h.327l3.389-5.584v7.677h2.98V31.662h-2.98zm-24.256 8.91c0 1.395.449 2.504 1.43 3.284.938.821 2.163 1.232 3.633 1.232 1.47 0 2.695-.41 3.635-1.232.939-.821 1.429-1.93 1.429-3.285v-8.95H21.02v8.663c0 1.232-.694 1.848-2.082 1.848-1.389 0-2.083-.616-2.083-1.848v-8.663h-2.981v8.95h.04zm-8.167 4.516c1.43 0 2.613-.37 3.512-1.068.898-.739 1.347-1.724 1.347-2.997 0-1.067-.449-1.93-.898-2.463a4.402 4.402 0 0 0-1.021-.74c-.45-.245-.817-.41-1.103-.492l-1.225-.41c-.939-.288-1.592-.534-1.919-.78-.286-.247-.45-.534-.45-.863 0-.533.491-.985 1.39-.985 1.143 0 1.796.534 2.286 1.52L10.2 34.33c-.94-1.93-2.654-2.997-4.819-2.997-1.184 0-2.246.37-3.103 1.109-.858.739-1.307 1.683-1.307 2.915 0 1.19.45 2.134 1.184 2.75.817.616 1.552.945 2.655 1.232 1.061.287 1.756.534 2.123.78.408.205.572.493.572.903 0 .698-.613 1.068-1.797 1.068-1.307 0-2.246-.616-2.736-1.848l-2.573 1.52c.858 2.093 2.655 3.325 5.35 3.325z" fill="#231F20"/><path d="M52.708 55.68c.408 0 .694-.082.939-.287a.955.955 0 0 0 .367-.78c0-.206-.081-.37-.122-.493-.082-.123-.245-.246-.368-.328-.04-.041-.163-.083-.245-.123-.122-.042-.204-.083-.245-.083l-.286-.123a2.531 2.531 0 0 1-.653-.287c-.123-.082-.204-.247-.204-.452 0-.41.327-.657.817-.657.449 0 .775.206.939.657l.326-.164c-.204-.493-.653-.821-1.265-.821-.327 0-.613.082-.858.287-.245.205-.327.452-.327.78 0 .329.164.575.45.78.122.083.408.206.775.329.327.123.572.205.735.328.164.123.205.247.205.452 0 .41-.327.698-.899.698-.572 0-.98-.288-1.102-.78l-.327.205c.122.534.653.862 1.348.862zm-6.534-1.847h1.715v-.37h-1.715v-1.355h1.837v-.37h-2.245v3.901h2.245v-.37h-1.878v-1.436h.04zm-4.492-2.094l-1.266 2.176-1.266-2.176h-.49v3.9h.368v-3.284l1.347 2.258h.041l1.348-2.258v3.284h.367v-3.9h-.449zm-9.596 3.12c-.327-.328-.45-.698-.45-1.15 0-.451.164-.82.45-1.149.327-.329.694-.493 1.143-.493.45 0 .858.164 1.144.493.326.328.449.698.449 1.15 0 .451-.164.862-.45 1.15-.326.328-.694.45-1.143.45a1.6 1.6 0 0 1-1.143-.45zm2.532.246c.367-.41.571-.862.571-1.436 0-.575-.204-1.027-.571-1.438-.368-.41-.858-.574-1.43-.574-.571 0-1.02.205-1.429.575-.367.369-.572.862-.572 1.437 0 .574.205 1.026.572 1.436.368.37.858.575 1.43.575.571 0 1.061-.205 1.429-.575zm-7.187-1.642h-2.083V51.78h-.367v3.9h.367v-1.806h2.083v1.806h.367v-3.9h-.367v1.683z" fill="#000"/></svg>