<?xml version="1.0" encoding="utf-8"?>
<!-- Generator: Adobe Illustrator 13.0.0, SVG Export Plug-In . SVG Version: 6.00 Build 14948)  -->
<!DOCTYPE svg PUBLIC "-//W3C//DTD SVG 1.0//EN" "http://www.w3.org/TR/2001/REC-SVG-20010904/DTD/svg10.dtd">
<svg version="1.0" id="Layer_1" xmlns="http://www.w3.org/2000/svg" xmlns:xlink="http://www.w3.org/1999/xlink" x="0px" y="0px"
	 width="107px" height="70px" viewBox="96.5 117.5 107 70" enable-background="new 96.5 117.5 107 70" xml:space="preserve">
<g>
	<path fill="#ED1C24" d="M148.811,141.553l-8.628,5.375h-9.208v-7.571h6.84c0.947,0,1.737-0.626,1.788-1.433v-11.782l9.208-5.599
		V141.553z M161.647,139.358c-1,0-1.788-0.716-1.841-1.567v-11.648l-9.26-5.598v21.053l8.681,5.376h9.207v-7.616H161.647
		L161.647,139.358z"/>
	<path fill="#231F20" d="M187.587,154.408v3.181h4.368v11.243h3.84v-11.243h4.367v-3.181H187.587z M179.59,168.788h3.841v-14.38
		h-3.84L179.59,168.788L179.59,168.788z M170.436,154.408l-4.577,6.405l-4.576-6.404h-3.841v14.377h3.839v-8.376l4.368,6.093h0.421
		l4.368-6.093v8.376h3.839v-14.378h-3.839H170.436z M148.181,154.408l-4.578,6.405l-4.577-6.404h-3.841v14.377h3.839v-8.376
		l4.368,6.093h0.421l4.367-6.093v8.376h3.839v-14.378H148.181L148.181,154.408z M116.929,164.13c0,1.521,0.579,2.731,1.842,3.583
		c1.209,0.896,2.787,1.344,4.681,1.344s3.472-0.447,4.683-1.344c1.21-0.896,1.841-2.105,1.841-3.584v-9.766h-3.894v9.452
		c0,1.344-0.894,2.017-2.683,2.017c-1.79,0-2.684-0.673-2.684-2.017v-9.452h-3.841v9.766L116.929,164.13L116.929,164.13z
		 M106.407,169.057c1.843,0,3.367-0.403,4.525-1.165c1.157-0.807,1.736-1.881,1.736-3.27c0-1.165-0.579-2.106-1.157-2.688
		c-0.391-0.321-0.833-0.594-1.315-0.808c-0.58-0.268-1.053-0.447-1.421-0.537l-1.578-0.447c-1.21-0.314-2.051-0.582-2.472-0.851
		c-0.369-0.27-0.58-0.583-0.58-0.941c0-0.582,0.633-1.075,1.791-1.075c1.473,0,2.314,0.583,2.945,1.658l3.264-1.614
		c-1.211-2.106-3.419-3.271-6.209-3.271c-1.525,0-2.894,0.404-3.998,1.21c-1.105,0.807-1.684,1.837-1.684,3.181
		c0,1.299,0.58,2.328,1.526,3.001c1.052,0.672,2,1.03,3.42,1.344c1.367,0.313,2.263,0.583,2.735,0.852
		c0.526,0.224,0.737,0.537,0.737,0.985c0,0.761-0.79,1.165-2.315,1.165c-1.684,0-2.894-0.673-3.525-2.017l-3.315,1.658
		c1.105,2.284,3.421,3.628,6.893,3.628L106.407,169.057z"/>
	<path d="M166.91,180.613c0.526,0,0.895-0.089,1.21-0.313c0.309-0.203,0.484-0.52,0.474-0.851c0-0.225-0.104-0.403-0.157-0.538
		c-0.105-0.134-0.316-0.267-0.475-0.357c-0.052-0.045-0.21-0.091-0.315-0.135c-0.157-0.045-0.263-0.09-0.315-0.09l-0.369-0.135
		c-0.296-0.069-0.579-0.175-0.841-0.313c-0.159-0.09-0.263-0.27-0.263-0.493c0-0.447,0.421-0.717,1.053-0.717
		c0.578,0,0.998,0.225,1.209,0.717l0.421-0.18c-0.264-0.537-0.842-0.896-1.63-0.896c-0.422,0-0.79,0.09-1.106,0.313
		c-0.314,0.224-0.421,0.493-0.421,0.851c0,0.359,0.211,0.628,0.58,0.852c0.157,0.09,0.525,0.225,0.998,0.359
		c0.422,0.134,0.737,0.223,0.947,0.357c0.211,0.134,0.265,0.27,0.265,0.493c0,0.447-0.422,0.761-1.158,0.761
		c-0.737,0-1.263-0.313-1.421-0.851l-0.421,0.224C165.331,180.256,166.016,180.613,166.91,180.613L166.91,180.613z M158.492,178.599
		h2.21v-0.404h-2.21v-1.479h2.367v-0.403h-2.893v4.256h2.893v-0.403h-2.42v-1.566H158.492L158.492,178.599z M152.705,176.313
		l-1.632,2.375l-1.631-2.375h-0.631v4.255h0.474v-3.583l1.735,2.464h0.053l1.737-2.464v3.583h0.473v-4.255H152.705z
		 M140.341,179.718c-0.421-0.358-0.58-0.762-0.58-1.255c0-0.492,0.211-0.895,0.58-1.254c0.421-0.358,0.894-0.537,1.472-0.537
		c0.58,0,1.106,0.179,1.474,0.537c0.42,0.358,0.579,0.762,0.579,1.255c0,0.492-0.211,0.94-0.58,1.255
		c-0.42,0.358-0.894,0.491-1.473,0.491C141.265,180.219,140.735,180.042,140.341,179.718L140.341,179.718z M143.604,179.986
		c0.473-0.447,0.735-0.94,0.735-1.567s-0.263-1.12-0.735-1.568c-0.474-0.447-1.105-0.626-1.843-0.626
		c-0.735,0-1.314,0.224-1.841,0.627c-0.473,0.402-0.737,0.94-0.737,1.567s0.264,1.12,0.737,1.567
		c0.474,0.403,1.105,0.627,1.842,0.627C142.498,180.613,143.129,180.39,143.604,179.986z M134.344,178.194h-2.684v-1.836h-0.473
		v4.255h0.473v-1.969h2.684v1.969h0.473v-4.255h-0.473V178.194z"/>
</g>
</svg>
